<?xml version="1.0" standalone="no"?>
<!DOCTYPE svg PUBLIC "-//W3C//DTD SVG 20010904//EN"
 "http://www.w3.org/TR/2001/REC-SVG-20010904/DTD/svg10.dtd">
<svg version="1.0" xmlns="http://www.w3.org/2000/svg"
 width="1280.000000pt" height="640.000000pt" viewBox="0 0 1280.000000 640.000000"
 preserveAspectRatio="xMidYMid meet">
<metadata>
Created by potrace 1.15, written by Peter Selinger 2001-2017
</metadata>
<g transform="translate(0.000000,640.000000) scale(0.100000,-0.100000)"
fill="#0091FF" stroke="none">
<path d="M4890 4799 c-86 -24 -227 -75 -320 -118 -54 -25 -88 -53 -202 -168
-123 -124 -144 -150 -201 -253 -83 -150 -165 -393 -207 -615 -30 -158 -30
-162 -20 -323 12 -178 20 -209 90 -346 57 -112 87 -145 192 -214 149 -98 213
-113 531 -123 142 -5 457 -8 699 -7 l441 3 14 40 c8 22 34 114 59 204 36 130
42 166 32 172 -7 5 -59 9 -115 9 -96 0 -103 1 -103 20 0 11 28 100 61 197 34
98 88 261 120 362 l59 184 0 199 0 198 -39 105 c-79 208 -219 346 -442 436
l-104 42 -200 8 c-265 11 -259 11 -345 -12z m433 -470 c63 -28 78 -40 123 -99
l52 -68 7 -158 6 -159 -101 -350 c-55 -192 -105 -365 -111 -382 l-11 -33 -285
0 -285 0 -82 45 c-108 59 -140 103 -161 222 -22 127 -19 194 20 381 29 143 43
186 89 284 76 161 152 247 274 305 l87 42 153 0 c150 1 154 0 225 -30z"/>
<path d="M12248 4609 c-22 -13 -110 -135 -428 -594 -144 -209 -279 -400 -298
-424 -40 -49 -42 -47 -61 44 -7 33 -21 88 -33 123 l-20 63 -248 -3 c-137 -2
-251 -5 -253 -8 -3 -3 43 -173 102 -379 l108 -374 -49 -194 c-37 -150 -46
-198 -38 -213 10 -19 22 -20 246 -20 l235 0 18 43 c10 24 35 108 55 187 20 80
41 155 46 167 5 12 224 309 488 660 515 687 671 898 679 919 4 12 -40 14 -263
14 -159 0 -276 -5 -286 -11z"/>
<path d="M1316 4526 c-9 -14 -22 -36 -30 -49 -45 -75 -59 -232 -31 -342 46
-175 227 -345 416 -390 146 -34 307 -7 422 73 36 24 117 124 117 144 0 5 -19
-6 -42 -25 -75 -60 -103 -70 -218 -75 -165 -7 -283 31 -401 130 -165 137 -246
316 -219 480 13 77 9 92 -14 54z"/>
<path d="M810 4379 c-34 -51 -76 -120 -93 -153 -31 -60 -31 -63 -35 -232 -4
-196 4 -249 53 -353 102 -212 239 -352 451 -459 129 -65 184 -77 349 -76 295
2 456 62 611 226 47 50 141 194 133 203 -3 2 -36 -23 -74 -56 -77 -65 -218
-139 -305 -161 -91 -22 -300 -17 -394 10 -277 79 -496 263 -620 523 -55 113
-66 166 -67 320 0 104 3 127 29 206 17 48 29 89 27 91 -2 2 -31 -38 -65 -89z"/>
<path d="M7678 4362 c-115 -1 -208 -4 -208 -5 0 -1 -11 -47 -25 -102 -30 -118
-98 -419 -190 -849 -37 -170 -73 -320 -82 -333 -15 -22 -19 -23 -170 -23 -196
0 -265 15 -305 67 -27 34 -28 42 -28 142 0 94 11 161 96 588 53 265 94 489 91
497 -6 14 -35 16 -216 16 -210 0 -211 0 -226 -24 -8 -12 -63 -249 -120 -526
l-105 -503 0 -150 c0 -143 1 -155 31 -236 27 -74 40 -95 96 -152 59 -61 72
-68 151 -94 106 -34 264 -43 730 -44 275 -1 319 2 349 23 2 1 149 690 232
1086 88 418 123 612 114 619 -4 3 -101 5 -215 3z"/>
<path d="M8528 4326 c-180 -73 -238 -110 -329 -211 -66 -74 -92 -112 -139
-210 -72 -150 -132 -369 -164 -604 l-22 -164 22 -99 c30 -134 62 -195 136
-262 77 -70 123 -91 276 -126 123 -29 131 -29 542 -36 508 -9 468 -19 499 130
32 153 53 287 47 294 -3 3 -201 7 -438 10 l-433 4 -60 33 c-53 29 -63 39 -78
82 -24 67 -22 125 4 149 19 18 50 19 562 24 l542 5 32 130 c24 97 35 173 43
296 l12 167 -31 108 -31 108 -75 76 c-71 71 -79 77 -172 108 l-98 33 -270 -1
-270 -1 -107 -43z m470 -385 c72 -37 92 -73 92 -171 l0 -70 -315 0 c-311 0
-315 0 -315 20 0 60 105 179 195 221 55 27 69 29 173 29 104 0 117 -2 170 -29z"/>
<path d="M9987 4352 c-28 -34 -17 14 -187 -787 -61 -286 -128 -602 -150 -703
-29 -136 -37 -189 -30 -207 l10 -25 198 0 c193 0 199 1 219 23 31 34 30 31 77
268 101 513 199 965 215 986 l16 22 518 1 518 0 -7 38 c-14 79 -45 205 -56
225 -30 58 -75 101 -134 129 -73 34 -82 34 -791 42 -367 4 -402 3 -416 -12z"/>
<path d="M3428 4353 c-20 -3 -30 -12 -34 -31 -3 -15 -14 -61 -24 -102 -21 -85
-50 -235 -50 -257 0 -13 31 -15 234 -12 129 2 237 7 241 11 7 7 69 277 80 351
l7 47 -213 -1 c-118 -1 -226 -4 -241 -6z"/>
<path d="M214 4174 c-162 -205 -223 -388 -211 -629 12 -230 74 -407 214 -613
103 -151 226 -266 392 -367 190 -116 354 -168 568 -181 394 -24 746 135 964
436 28 38 99 158 99 166 0 3 -30 -22 -67 -56 -200 -184 -401 -260 -688 -260
-459 0 -863 227 -1113 625 -158 253 -206 612 -117 876 14 40 24 74 22 75 -2 2
-30 -30 -63 -72z"/>
<path d="M3331 3811 c-50 -6 -55 -8 -63 -36 -4 -16 -65 -288 -134 -603 -115
-520 -130 -580 -163 -639 -20 -36 -53 -85 -74 -109 l-39 -44 -97 0 c-81 0
-101 -3 -113 -17 -19 -22 -37 -79 -83 -257 -28 -109 -33 -141 -24 -153 11 -12
53 -13 283 -7 l271 7 85 49 c82 48 88 54 152 152 91 139 135 280 237 751 127
589 181 853 181 885 l0 30 -182 -2 c-101 -1 -207 -4 -237 -7z"/>
<path d="M7101 2206 c-16 -17 -20 -30 -15 -50 8 -35 15 -38 64 -30 50 8 70 39
52 79 -16 34 -69 35 -101 1z"/>
<path d="M8111 2212 c-26 -13 -41 -32 -62 -79 -24 -53 -32 -63 -53 -63 -19 0
-26 -7 -31 -30 -9 -41 -7 -45 15 -42 28 5 26 -23 -15 -228 -19 -95 -35 -177
-35 -182 0 -4 17 -8 39 -8 l38 0 21 68 c11 37 35 130 54 207 l33 140 43 3 c35
3 45 8 52 28 16 40 13 44 -35 44 -25 0 -45 4 -45 9 0 21 33 41 66 41 30 0 37
5 50 35 20 49 19 51 -30 64 -56 14 -63 13 -105 -7z"/>
<path d="M6736 2210 c-34 -4 -41 -10 -48 -35 -18 -67 -68 -329 -74 -391 l-7
-67 24 6 c13 4 72 7 131 7 l107 0 41 60 c34 49 43 74 52 138 11 77 11 78 -17
120 -31 47 -26 46 -114 32 -35 -6 -65 -9 -68 -7 -2 3 1 35 7 72 6 37 9 68 8
69 -2 1 -21 -1 -42 -4z"/>
<path d="M7226 2178 c-5 -27 -2 -36 15 -50 l21 -18 -30 -162 c-17 -90 -32
-175 -35 -190 -4 -27 -3 -28 39 -28 24 0 44 2 44 5 0 3 23 106 50 230 28 124
50 229 50 235 0 6 -31 10 -74 10 l-73 0 -7 -32z"/>
<path d="M11147 2178 c-4 -18 -24 -121 -47 -228 -22 -107 -40 -202 -40 -210 0
-12 9 -15 40 -12 38 4 39 5 60 67 19 56 34 75 59 75 4 0 21 -31 36 -70 l28
-70 44 0 43 0 0 47 c0 34 -6 53 -22 70 l-22 23 22 16 c40 28 72 96 72 152 l0
52 -33 0 c-31 0 -35 -4 -66 -69 -32 -65 -36 -69 -74 -75 -22 -4 -41 -5 -43 -3
-2 2 5 57 16 123 11 65 20 125 20 132 0 8 -15 12 -44 12 -41 0 -44 -2 -49 -32z"/>
<path d="M6027 2074 c-43 -10 -64 -11 -79 -3 -13 7 -54 8 -119 3 -90 -6 -100
-9 -104 -28 -9 -37 -65 -309 -65 -313 0 -1 22 -3 50 -3 49 0 49 0 56 38 15 85
45 207 55 218 13 16 69 -5 69 -26 -1 -8 -9 -63 -19 -122 l-17 -108 42 0 c47 0
46 -2 63 93 32 170 31 167 55 167 12 0 30 -6 40 -13 16 -12 17 -20 6 -97 -6
-47 -13 -100 -17 -117 -5 -33 -5 -33 35 -33 23 0 43 4 46 8 2 4 16 65 31 134
l27 127 -32 46 c-34 49 -37 50 -123 29z"/>
<path d="M6344 2068 c-58 -20 -64 -25 -98 -83 -33 -56 -36 -69 -36 -137 0 -65
3 -77 23 -96 21 -19 35 -22 118 -22 85 0 98 3 133 26 48 33 96 134 96 203 0
54 -27 88 -92 115 -47 20 -68 19 -144 -6z"/>
<path d="M7479 2060 c-50 -26 -58 -35 -82 -90 -21 -48 -27 -77 -27 -134 0 -69
1 -72 29 -89 23 -13 53 -17 134 -17 102 0 106 1 126 26 12 15 21 35 21 45 0
17 -9 19 -100 19 l-100 0 0 25 0 25 114 0 114 0 4 80 3 80 -42 30 c-56 40
-116 40 -194 0z"/>
<path d="M8621 2057 c-60 -45 -90 -116 -91 -218 0 -108 3 -110 166 -107 l129
3 12 55 c32 138 51 265 41 271 -10 6 -169 29 -199 29 -8 0 -34 -15 -58 -33z"/>
<path d="M9068 2076 c-76 -7 -99 -13 -102 -25 -6 -17 -66 -309 -66 -316 0 -3
21 -5 48 -5 l47 0 22 103 c12 57 27 117 35 134 13 31 14 31 44 19 l31 -14 -13
-103 c-19 -148 -20 -139 26 -139 37 0 40 2 49 38 5 20 15 69 21 107 6 39 17
82 23 97 12 26 13 26 45 13 30 -13 32 -17 27 -52 -3 -21 -9 -75 -13 -120 l-8
-83 38 0 c35 0 38 2 49 43 13 50 34 155 43 213 5 39 4 43 -36 74 l-41 33 -69
-18 c-59 -15 -71 -16 -86 -4 -14 12 -36 13 -114 5z"/>
<path d="M9561 2067 c-36 -18 -49 -34 -77 -89 -29 -59 -34 -77 -34 -141 0
-104 5 -107 157 -107 119 0 120 0 131 25 26 56 12 65 -105 65 -66 0 -73 2 -73
20 0 11 3 20 8 20 35 2 215 20 217 22 2 2 5 35 6 75 l4 72 -40 30 c-33 26 -49
30 -95 30 -36 0 -70 -8 -99 -22z"/>
<path d="M10475 2061 c-58 -26 -62 -31 -93 -98 -42 -91 -44 -157 -6 -202 26
-31 26 -31 129 -31 l104 0 34 43 c64 78 77 107 77 172 0 82 -31 121 -109 135
-70 13 -66 14 -136 -19z"/>
<path d="M8325 2073 c-27 -2 -53 -7 -57 -11 -6 -6 -79 -335 -75 -338 1 -1 22
1 46 5 l44 6 23 90 c46 174 44 171 91 159 18 -5 21 -11 16 -35 -5 -29 -5 -29
46 -29 l51 0 0 63 c0 98 -11 103 -185 90z"/>
<path d="M10878 2071 c-31 -3 -60 -9 -63 -13 -6 -6 -52 -198 -77 -320 -2 -9
10 -13 42 -13 l45 0 33 130 c19 72 34 131 35 131 1 1 12 4 23 8 19 6 23 1 31
-31 8 -36 11 -38 50 -41 38 -3 41 -1 52 29 18 52 14 96 -11 113 -23 16 -59 18
-160 7z"/>
<path d="M7010 2034 c0 -27 5 -37 20 -41 11 -3 20 -8 20 -12 0 -3 -7 -53 -15
-111 -21 -153 -22 -146 25 -142 31 3 41 9 45 26 12 49 65 301 65 308 0 5 -36
8 -80 8 l-80 0 0 -36z"/>
<path d="M9884 2063 c-18 -3 -22 -14 -28 -65 -3 -34 -6 -109 -6 -167 l0 -106
74 3 73 3 41 107 41 107 0 -107 1 -108 73 0 c70 0 73 1 84 28 6 15 36 88 67
162 31 74 52 138 47 143 -5 5 -25 7 -46 5 l-38 -3 -41 -107 c-22 -58 -45 -110
-50 -115 -5 -5 -6 0 -2 11 4 11 4 64 0 118 l-7 99 -64 -3 -65 -3 -35 -95 c-50
-134 -57 -135 -49 -7 l7 107 -28 -1 c-15 -1 -38 -4 -49 -6z"/>
<path d="M11468 1813 c-23 -3 -38 -10 -38 -17 0 -8 -3 -28 -6 -45 l-6 -31 50
0 c47 0 53 2 67 31 15 29 15 32 -1 50 -9 10 -20 18 -23 17 -3 -1 -23 -3 -43
-5z"/>
</g>
</svg>
