<?xml version="1.0" standalone="no"?>
<!DOCTYPE svg PUBLIC "-//W3C//DTD SVG 20010904//EN"
 "http://www.w3.org/TR/2001/REC-SVG-20010904/DTD/svg10.dtd">
<svg version="1.0" xmlns="http://www.w3.org/2000/svg"
 width="1280.000000pt" height="1000.000000pt" viewBox="0 0 1280.000000 1000.000000"
 preserveAspectRatio="xMidYMid meet">
<metadata>
Created by potrace 1.15, written by Peter Selinger 2001-2017
</metadata>
<g transform="translate(0.000000,1000.000000) scale(0.100000,-0.100000)"
fill="#673ab7" stroke="none">
<path d="M333 9985 c-164 -45 -275 -157 -318 -322 -13 -50 -15 -494 -15 -3618
0 -3857 -3 -3610 51 -3717 55 -109 187 -204 313 -227 42 -8 747 -11 2328 -11
1247 0 2268 -2 2268 -5 0 -3 -5 -49 -11 -102 -27 -249 -117 -425 -421 -833
-63 -85 -142 -195 -175 -245 -32 -49 -70 -107 -83 -127 -18 -26 -102 -88 -300
-219 -151 -100 -359 -240 -462 -311 -187 -129 -188 -130 -188 -167 0 -26 7
-44 23 -59 l23 -22 3020 0 c2502 0 3023 2 3038 13 11 8 22 33 26 60 7 47 7 47
-44 95 -121 114 -347 277 -666 480 l-200 129 -58 94 c-32 52 -101 155 -153
229 -242 344 -322 479 -383 648 -28 78 -56 228 -56 300 l0 42 2243 0 c1564 0
2261 3 2303 11 126 23 258 118 313 227 54 107 51 -140 51 3717 0 3124 -2 3568
-15 3618 -44 167 -155 278 -322 322 -50 13 -771 15 -6068 14 -5139 0 -6018 -2
-6062 -14z"/>
</g>
</svg>
